<svg width="16" height="161" viewBox="0 0 16 161" fill="none" xmlns="http://www.w3.org/2000/svg">
<path d="M7.29289 160.707C7.68342 161.098 8.31658 161.098 8.70711 160.707L15.0711 154.343C15.4616 153.953 15.4616 153.319 15.0711 152.929C14.6805 152.538 14.0474 152.538 13.6569 152.929L8 158.586L2.34315 152.929C1.95262 152.538 1.31946 152.538 0.928932 152.929C0.538408 153.319 0.538408 153.953 0.928932 154.343L7.29289 160.707ZM7 10C7 10.5523 7.44772 11 8 11C8.55228 11 9 10.5523 9 10H7ZM9 30C9 29.4477 8.55228 29 8 29C7.44772 29 7 29.4477 7 30H9ZM7 50C7 50.5523 7.44772 51 8 51C8.55228 51 9 50.5523 9 50H7ZM9 70C9 69.4477 8.55228 69 8 69C7.44772 69 7 69.4477 7 70H9ZM7 90C7 90.5523 7.44772 91 8 91C8.55228 91 9 90.5523 9 90H7ZM9 110C9 109.448 8.55228 109 8 109C7.44772 109 7 109.448 7 110H9ZM7 130C7 130.552 7.44772 131 8 131C8.55228 131 9 130.552 9 130H7ZM9 150C9 149.448 8.55228 149 8 149C7.44772 149 7 149.448 7 150H9ZM7 0L7 10H9V0L7 0ZM7 30L7 50H9L9 30H7ZM7 70L7 90H9L9 70H7ZM7 110L7 130H9V110H7ZM7 150L7 160H9L9 150H7ZM7.29289 160.707C7.68342 161.098 8.31658 161.098 8.70711 160.707L15.0711 154.343C15.4616 153.953 15.4616 153.319 15.0711 152.929C14.6805 152.538 14.0474 152.538 13.6569 152.929L8 158.586L2.34315 152.929C1.95262 152.538 1.31946 152.538 0.928932 152.929C0.538408 153.319 0.538408 153.953 0.928932 154.343L7.29289 160.707ZM7 10C7 10.5523 7.44772 11 8 11C8.55228 11 9 10.5523 9 10H7ZM9 30C9 29.4477 8.55228 29 8 29C7.44772 29 7 29.4477 7 30H9ZM7 50C7 50.5523 7.44772 51 8 51C8.55228 51 9 50.5523 9 50H7ZM9 70C9 69.4477 8.55228 69 8 69C7.44772 69 7 69.4477 7 70H9ZM7 90C7 90.5523 7.44772 91 8 91C8.55228 91 9 90.5523 9 90H7ZM9 110C9 109.448 8.55228 109 8 109C7.44772 109 7 109.448 7 110H9ZM7 130C7 130.552 7.44772 131 8 131C8.55228 131 9 130.552 9 130H7ZM9 150C9 149.448 8.55228 149 8 149C7.44772 149 7 149.448 7 150H9ZM7 0L7 10H9V0L7 0ZM7 30L7 50H9L9 30H7ZM7 70L7 90H9L9 70H7ZM7 110L7 130H9V110H7ZM7 150L7 160H9L9 150H7Z" fill="#69D4E2" fill-opacity="0.58"/>
</svg>
