<svg width="62" height="71" viewBox="0 0 62 71" fill="none" xmlns="http://www.w3.org/2000/svg">
<path d="M19.3005 18.8329L19.3346 18.8027L19.3735 18.7791C21.6337 17.4109 23.4963 16.5097 25.0387 16.0223C26.5781 15.5359 27.844 15.4474 28.8814 15.7653C29.9367 16.0888 30.6805 16.8093 31.2118 17.7782C31.7357 18.7338 32.0644 19.9496 32.3019 21.3181C32.5402 22.6909 32.6929 24.2584 32.845 25.932C32.8627 26.127 32.8804 26.3235 32.8982 26.5214C33.0341 28.0289 33.1775 29.6194 33.3869 31.2548C33.8603 34.9512 34.667 38.8355 36.4556 42.3812C37.1093 43.523 38.5251 44.8701 40.3721 46.3482C41.9003 47.5711 43.6762 48.8479 45.4698 50.1374C45.834 50.3993 46.199 50.6617 46.5628 50.9243C48.7081 52.4728 50.8124 54.0281 52.4281 55.4914C53.2364 56.2234 53.9352 56.9437 54.4593 57.6397C54.9793 58.3303 55.3548 59.0325 55.4662 59.7264C55.5003 59.9385 55.4234 60.1378 55.275 60.2738C55.1543 60.3843 55.0114 60.4314 54.914 60.4548C54.7123 60.5034 54.4581 60.5065 54.1956 60.4914C53.6533 60.4603 52.8847 60.3377 51.9627 60.1436C50.1103 59.7535 47.5599 59.0575 44.7884 58.1465C39.2655 56.331 32.7632 53.6288 29.1567 50.7324C22.2902 45.218 17.0634 39.742 14.9285 34.3946C13.8552 31.7062 13.5567 29.0338 14.2396 26.4073C14.9217 23.7841 16.5696 21.2571 19.3005 18.8329Z" fill="#E44C63" fill-opacity="0.57" stroke="#69D4E2"/>
<path d="M26.9509 13.7713C25.0159 13.0746 22.9388 12.8662 20.9039 13.1644L20.2488 13.2604C19.2852 13.4017 18.3556 13.7176 17.5055 14.1928L15.6173 15.2483L14.3183 17.5097C13.5746 18.8044 13.208 20.2814 13.2601 21.7735L13.2807 22.3637C13.2949 22.7722 13.259 23.181 13.1737 23.5808L12.8019 25.3246L12.2611 26.5077L15.2832 23.355L17.9937 23.9793L20.1569 19.2471L26.5318 18.4426L25.171 15.6141L29.9389 15.9954L31.6628 15.3532L30.5 15.3937L29.317 14.8529L26.9509 13.7713Z" fill="#69D4E2"/>
<path d="M14.5006 12.4534C16.3339 14.869 15.1043 18.8884 16.0706 18.1551C17.0368 17.4218 18.2944 12.0026 16.4611 9.58695C14.6277 7.17133 11.4835 6.47145 10.5172 7.20478C9.55099 7.9381 12.6673 10.0378 14.5006 12.4534Z" fill="#69D4E2"/>
</svg>
